<svg width="172" height="32" viewBox="0 0 172 32" fill="none" xmlns="http://www.w3.org/2000/svg">
<path fill-rule="evenodd" clip-rule="evenodd" d="M19.7846 4.34383C18.2034 1.59964 14.2444 1.59631 12.6585 4.33784L7.22235 13.7352L7.46535 14.4182C7.70038 15.0787 8.56082 15.2398 9.0189 14.709L12.8565 10.2623C14.5959 8.2468 17.9041 9.47692 17.9041 12.1392C17.9041 12.1685 17.9084 12.1851 17.9109 12.193C17.9136 12.2012 17.917 12.2076 17.9214 12.2136C17.9311 12.2271 17.9522 12.2468 17.9869 12.2603C18.0215 12.2738 18.0504 12.2736 18.0667 12.2702C18.074 12.2687 18.0809 12.2663 18.0884 12.262C18.0955 12.258 18.1099 12.2486 18.1297 12.2271L21.9366 8.07848L19.7846 4.34383ZM23.3726 10.5704L20.1506 14.0815C18.3797 16.0114 15.1612 14.7585 15.1612 12.1392C15.1612 12.1088 15.1568 12.0917 15.1542 12.0841C15.1516 12.076 15.1482 12.0698 15.1439 12.0639C15.1342 12.0507 15.1125 12.0308 15.0766 12.0175C15.0407 12.0041 15.0113 12.005 14.9953 12.0087C14.9882 12.0103 14.9816 12.0128 14.9743 12.0172C14.9674 12.0213 14.9529 12.0313 14.933 12.0543L11.0954 16.5011C9.58788 18.2479 6.9909 18.1213 5.59403 16.5501L1.47704 23.6671C-0.108853 26.4086 1.86775 29.8388 5.03492 29.8415L27.3653 29.8603C30.5324 29.863 32.5148 26.4361 30.9335 23.6919L23.3726 10.5704Z" fill="url(#paint0_linear_2172_199)"/>
<path d="M46.5538 25V10.072L47.6098 10.888H43.1218V7.48H50.4658V25H46.5538ZM61.0435 25.456C59.6515 25.456 58.4595 25.232 57.4675 24.784C56.4755 24.32 55.6675 23.696 55.0435 22.912C54.4355 22.128 53.9795 21.224 53.6755 20.2C53.3875 19.16 53.2435 18.064 53.2435 16.912V15.544C53.2435 13.944 53.5235 12.496 54.0835 11.2C54.6435 9.904 55.4995 8.872 56.6515 8.104C57.8035 7.336 59.2675 6.952 61.0435 6.952C62.8195 6.952 64.2755 7.336 65.4115 8.104C66.5635 8.872 67.4195 9.904 67.9795 11.2C68.5395 12.496 68.8195 13.944 68.8195 15.544V16.912C68.8195 18.064 68.6675 19.16 68.3635 20.2C68.0755 21.224 67.6195 22.128 66.9955 22.912C66.3875 23.696 65.5875 24.32 64.5955 24.784C63.6195 25.232 62.4355 25.456 61.0435 25.456ZM61.0435 21.832C62.3395 21.832 63.2995 21.384 63.9235 20.488C64.5635 19.576 64.8835 18.168 64.8835 16.264C64.8835 14.248 64.5555 12.8 63.8995 11.92C63.2595 11.024 62.3075 10.576 61.0435 10.576C59.7475 10.576 58.7795 11.024 58.1395 11.92C57.4995 12.8 57.1795 14.232 57.1795 16.216C57.1795 18.136 57.4915 19.552 58.1155 20.464C58.7555 21.376 59.7315 21.832 61.0435 21.832ZM78.6282 25.456C77.2362 25.456 76.0442 25.232 75.0522 24.784C74.0602 24.32 73.2522 23.696 72.6282 22.912C72.0202 22.128 71.5642 21.224 71.2602 20.2C70.9722 19.16 70.8282 18.064 70.8282 16.912V15.544C70.8282 13.944 71.1082 12.496 71.6682 11.2C72.2282 9.904 73.0842 8.872 74.2362 8.104C75.3882 7.336 76.8522 6.952 78.6282 6.952C80.4042 6.952 81.8602 7.336 82.9962 8.104C84.1482 8.872 85.0042 9.904 85.5642 11.2C86.1242 12.496 86.4042 13.944 86.4042 15.544V16.912C86.4042 18.064 86.2522 19.16 85.9482 20.2C85.6602 21.224 85.2042 22.128 84.5802 22.912C83.9722 23.696 83.1722 24.32 82.1802 24.784C81.2042 25.232 80.0202 25.456 78.6282 25.456ZM78.6282 21.832C79.9242 21.832 80.8842 21.384 81.5082 20.488C82.1482 19.576 82.4682 18.168 82.4682 16.264C82.4682 14.248 82.1402 12.8 81.4842 11.92C80.8442 11.024 79.8922 10.576 78.6282 10.576C77.3322 10.576 76.3642 11.024 75.7242 11.92C75.0842 12.8 74.7642 14.232 74.7642 16.216C74.7642 18.136 75.0762 19.552 75.7002 20.464C76.3402 21.376 77.3162 21.832 78.6282 21.832Z" fill="#100F0F"/>
<path d="M98.1079 25.408C96.2359 25.408 94.7719 25.024 93.7159 24.256C92.6599 23.488 92.0999 22.408 92.0359 21.016H95.4439C95.5079 21.432 95.7559 21.808 96.1879 22.144C96.6359 22.464 97.2999 22.624 98.1799 22.624C98.8519 22.624 99.4039 22.512 99.8359 22.288C100.284 22.048 100.508 21.712 100.508 21.28C100.508 20.896 100.34 20.592 100.004 20.368C99.6679 20.128 99.0679 19.96 98.2039 19.864L97.1719 19.768C95.5879 19.608 94.3959 19.168 93.5959 18.448C92.8119 17.728 92.4199 16.808 92.4199 15.688C92.4199 14.76 92.6519 13.984 93.1159 13.36C93.5799 12.736 94.2199 12.264 95.0359 11.944C95.8679 11.624 96.8119 11.464 97.8679 11.464C99.5639 11.464 100.932 11.84 101.972 12.592C103.012 13.328 103.556 14.4 103.604 15.808H100.196C100.132 15.376 99.9079 15.016 99.5239 14.728C99.1399 14.424 98.5719 14.272 97.8199 14.272C97.2279 14.272 96.7559 14.384 96.4039 14.608C96.0519 14.832 95.8759 15.136 95.8759 15.52C95.8759 15.888 96.0279 16.168 96.3319 16.36C96.6359 16.552 97.1319 16.688 97.8199 16.768L98.8519 16.864C100.468 17.04 101.724 17.488 102.62 18.208C103.516 18.928 103.964 19.896 103.964 21.112C103.964 21.992 103.724 22.76 103.244 23.416C102.764 24.056 102.084 24.552 101.204 24.904C100.324 25.24 99.2919 25.408 98.1079 25.408ZM111.636 25.456C110.5 25.456 109.508 25.272 108.66 24.904C107.828 24.52 107.132 24.008 106.572 23.368C106.012 22.728 105.596 22.008 105.324 21.208C105.052 20.392 104.916 19.552 104.916 18.688V18.232C104.916 17.336 105.06 16.48 105.348 15.664C105.636 14.832 106.06 14.096 106.62 13.456C107.18 12.816 107.876 12.312 108.708 11.944C109.556 11.576 110.524 11.392 111.612 11.392C112.796 11.392 113.844 11.624 114.756 12.088C115.668 12.536 116.396 13.168 116.94 13.984C117.484 14.8 117.788 15.736 117.852 16.792H114.084C114.02 16.2 113.78 15.704 113.364 15.304C112.964 14.888 112.38 14.68 111.612 14.68C110.972 14.68 110.436 14.84 110.004 15.16C109.588 15.48 109.276 15.92 109.068 16.48C108.86 17.04 108.756 17.704 108.756 18.472C108.756 19.176 108.852 19.816 109.044 20.392C109.236 20.952 109.54 21.392 109.956 21.712C110.388 22.016 110.948 22.168 111.636 22.168C112.148 22.168 112.58 22.08 112.932 21.904C113.3 21.712 113.588 21.456 113.796 21.136C114.02 20.8 114.156 20.416 114.204 19.984H117.948C117.9 21.072 117.596 22.032 117.036 22.864C116.476 23.68 115.732 24.32 114.804 24.784C113.876 25.232 112.82 25.456 111.636 25.456ZM119.684 25V7.48H123.524V17.584H122.948C122.948 16.256 123.116 15.136 123.452 14.224C123.788 13.312 124.284 12.624 124.94 12.16C125.596 11.68 126.42 11.44 127.412 11.44H127.58C129.036 11.44 130.148 11.96 130.916 13C131.684 14.024 132.068 15.528 132.068 17.512V25H128.228V17.272C128.228 16.552 128.012 15.976 127.58 15.544C127.164 15.096 126.612 14.872 125.924 14.872C125.204 14.872 124.62 15.104 124.172 15.568C123.74 16.032 123.524 16.648 123.524 17.416V25H119.684ZM141.028 25.456C139.876 25.456 138.852 25.28 137.956 24.928C137.06 24.56 136.3 24.064 135.676 23.44C135.068 22.816 134.604 22.104 134.284 21.304C133.964 20.488 133.804 19.632 133.804 18.736V18.184C133.804 17.272 133.964 16.408 134.284 15.592C134.62 14.76 135.1 14.032 135.724 13.408C136.364 12.784 137.132 12.296 138.028 11.944C138.924 11.576 139.924 11.392 141.028 11.392C142.164 11.392 143.172 11.576 144.052 11.944C144.948 12.296 145.708 12.784 146.332 13.408C146.956 14.032 147.436 14.76 147.772 15.592C148.108 16.408 148.276 17.272 148.276 18.184V18.736C148.276 19.632 148.116 20.488 147.796 21.304C147.476 22.104 147.004 22.816 146.38 23.44C145.772 24.064 145.02 24.56 144.124 24.928C143.228 25.28 142.196 25.456 141.028 25.456ZM141.028 22.216C141.78 22.216 142.404 22.056 142.9 21.736C143.396 21.416 143.772 20.968 144.028 20.392C144.3 19.816 144.436 19.176 144.436 18.472C144.436 17.72 144.3 17.064 144.028 16.504C143.756 15.928 143.364 15.472 142.852 15.136C142.356 14.8 141.748 14.632 141.028 14.632C140.324 14.632 139.716 14.8 139.204 15.136C138.692 15.472 138.3 15.928 138.028 16.504C137.772 17.064 137.644 17.72 137.644 18.472C137.644 19.176 137.772 19.816 138.028 20.392C138.284 20.968 138.668 21.416 139.18 21.736C139.692 22.056 140.308 22.216 141.028 22.216ZM156.644 25.456C155.492 25.456 154.468 25.28 153.572 24.928C152.676 24.56 151.916 24.064 151.292 23.44C150.684 22.816 150.22 22.104 149.9 21.304C149.58 20.488 149.42 19.632 149.42 18.736V18.184C149.42 17.272 149.58 16.408 149.9 15.592C150.236 14.76 150.716 14.032 151.34 13.408C151.98 12.784 152.748 12.296 153.644 11.944C154.54 11.576 155.54 11.392 156.644 11.392C157.78 11.392 158.788 11.576 159.668 11.944C160.564 12.296 161.324 12.784 161.948 13.408C162.572 14.032 163.052 14.76 163.388 15.592C163.724 16.408 163.892 17.272 163.892 18.184V18.736C163.892 19.632 163.732 20.488 163.412 21.304C163.092 22.104 162.62 22.816 161.996 23.44C161.388 24.064 160.636 24.56 159.74 24.928C158.844 25.28 157.812 25.456 156.644 25.456ZM156.644 22.216C157.396 22.216 158.02 22.056 158.516 21.736C159.012 21.416 159.388 20.968 159.644 20.392C159.916 19.816 160.052 19.176 160.052 18.472C160.052 17.72 159.916 17.064 159.644 16.504C159.372 15.928 158.98 15.472 158.468 15.136C157.972 14.8 157.364 14.632 156.644 14.632C155.94 14.632 155.332 14.8 154.82 15.136C154.308 15.472 153.916 15.928 153.644 16.504C153.388 17.064 153.26 17.72 153.26 18.472C153.26 19.176 153.388 19.816 153.644 20.392C153.9 20.968 154.284 21.416 154.796 21.736C155.308 22.056 155.924 22.216 156.644 22.216ZM166.02 25V7.48H169.884V25H166.02ZM164.46 10.312V7.48H169.884V10.312H164.46Z" fill="#F30117"/>
<defs>
<linearGradient id="paint0_linear_2172_199" x1="13.8409" y1="29.7499" x2="16.4637" y2="2.30428" gradientUnits="userSpaceOnUse">
<stop stop-color="#DD001A"/>
<stop offset="1" stop-color="#FE2034"/>
</linearGradient>
</defs>
</svg>
